<?xml version="1.0" encoding="UTF-8"?>
<svg style="fill: #D6D9B6" id="Layer_1" data-name="Layer 1" xmlns="http://www.w3.org/2000/svg" xmlns:xlink="http://www.w3.org/1999/xlink" viewBox="0 0 58.7056 41.9592">
  <a xlink:href="87.2558823529412">
    <path id="fullLogo" d="M.1034,21.4087c-.051,.2354-.5002,2.4804,.98,4.1744,.2393,.2739,.8494,.9123,1.8549,1.243,1.3001,.4276,3.4589-.3362,4.2412-1.261,.7093-.8386,1.1083-1.4157,1.3321-2.4309,.0292-.1326,.05-.2666,.0614-.4019h0c.0144-.1712,.0216-.343,.0216-.5148V13.4309c-.0117-.478-.0449-1.5986-.0449-1.5986,.1023-.0251,.2695,.3558,.4005,.6197,.9921,1.8402,2.6377,3.4541,4.9738,3.5494,1.2943,.0639,3.0234-.3465,3.8671-1.5768,.0549-.0801,.7008-1.0397,.3755-1.4267-.2266-.2695-.8929-.2242-1.0888,.0751-.189,.2888,.1913,.6132,.1126,1.0888-.07,.4227-.4683,.7556-.8887,.9704,.2987-.2358,.566-.5527,.6091-.9494,.0274-.2516-.0207-.6705-.2811-.7825-.245-.1054-.6128,.0892-.6228,.2532-.0099,.1637,.3416,.2131,.4053,.4856,.0423,.1809-.0682,.3499-.1437,.462-.0357,.053-.0756,.104-.1189,.153-.5108,.5784-1.3466,.7271-2.06,.433-.8547-.3524-1.555-1.0072-1.8553-1.2882-1.3704-1.2825-2.3974-3.2771-2.997-4.4416-.1829-.4216-.9571-1.5007-1.7068-1.8585-.8009-.3902-1.8652-.032-2.7436,.5459-.5253,.3456-.9544,.825-1.2095,1.3997-.1878,.4232-.3164,.9365-.1499,1.3974,.2536,.702,1.4227,.9986,1.8069,.7462,.4978-.327,.1364-.6096-.6989-1.0869-1.3055-.5856-.4886-2.0021,.8291-1.8552,.2307,.0257,.4589,.1146,.6438,.286,.0592,.0549,.1746,.1284,.2689,.2491,.2296,.2938,.2355,.652,.2361,.8127l.166,5.7411,.0639,6.348c.0079,.6485-.1777,1.2912-.563,1.813-.0511,.0706-.1039,.1388-.1582,.2046-1.2859,1.558-3.9902,1.3201-4.917-.4748-.0259-.0501-.0513-.1017-.0762-.1547-.6224-1.7133-.2808-3.0179,.2674-3.7837,.1533-.1618,.3282-.2746,.5278-.299,.4916-.0601,.8134,.5477,1.0897,.4115,.325-.1603,.3508-1.2341-.124-1.5182-.4725-.2827-1.1971,.3877-1.5192,.7114-.4125,.4146-.6526,.8009-.7383,.9787-.1289,.2671-.2098,.4588-.2659,.6412-.0488,.1586-.1043,.4248-.1631,.696Z"/>
  </a>
  <a xlink:href="87.2558823529412">
    <path id="fullLogo-2" data-name="fullLogo" d="M24.519,24.2824c-.8153-1.2209-3.1032-1.008-3.4019-.9711-.0826,.0102-.3207,.0476-.4324,.0646-.022,.0034-.0439,.0074-.0657,.0121-1.5179,.3277-2.5414,.9565-2.9926,1.3382,.0419-.0757,.086-.1554,.1348-.2431l.0128-.0215c.2778-.435,.4812-.7822,.5371-.8913,.0375-.11,.0375-.154-.0751-.176-.0937,0-1.125-.0441-1.9127-.0661-.7875,0-1.9314-.022-1.9688-.022-.0563,.022-.1126,.022-.0563,.11,.0557,.0652,.3866,.6472,.6297,1.0006l.0151,.0241c.2226,.3908,.4434,.7364,.4991,.8452,.0938,.11,.0375,.176,.0188,.22-.0188,.0659-.1687,.3519-.45,.8358-.3,.528-.7014,1.3106-.8889,1.7066-.1689,.374-.2925,.6034-.33,.6693-.0375,.088-.0375,.0661-.0751,0-.0188-.044-.675-1.254-1.0126-1.9358-.3187-.6161-.7313-1.298-.7499-1.342-.0188-.0439-.0375-.0439,.0186-.132,.0555-.0867,.3841-.6435,.5551-.9754l.0164-.0282c.1896-.2901,.5352-.8449,.5536-.8882,.0188-.0441,.0188-.088-.0188-.088-.0563-.022-1.3315-.022-2.1001-.022-.8251,0-1.7064,.022-1.8565,.044-.0749,0-.0937,.0441-.0375,.132,.0375,.088,.2813,.484,.5063,.8359,.2438,.418,.4875,.792,.5626,.924,.075,.132,.0563,.176,.0563,.3519,0,.1981-.0751,.836-.3376,2.5299-.2438,1.6939-.4688,3.0799-.7689,5.1037-.3187,2.0679-.4875,3.1899-.4875,3.2779-.0186,.0879-.0374,.1099-.0749,.1979-.0375,.0661-.1313,.242-.4126,.704-.2624,.4619-.5249,.924-.6375,1.122-.0937,.176,.0188,.176,.1501,.176,.1312,.022,1.4813,.022,1.95,.022h1.8753c.0749,0,.0562-.0659,.0186-.154-.0374-.0879-.2999-.5279-.5249-.9239-.2625-.418-.4875-.704-.5626-.8579-.075-.132-.075-.242-.0563-.374,.0374-.1315,.0375-.3503,.26-1.3742l.0044-.0236c.1673-1.0695,.2238-1.5541,.392-2.6719,.1312-1.1439,.5062-3.2119,.5249-3.2998l.0345-.1689c.0375,.0661,.3219,.6309,.7907,1.5549,.2813,.5939,.5063,1.0339,.8064,1.5178,.1124,.1761,.3021,.2471,.4284,.2404,.1253-.0051,.3512-.0827,.4579-.242,.0937-.154,.5388-.9664,.8387-1.4942,.1764-.3311,.4365-.8283,.6123-1.198,.0528-.111,.0508-.1015,.1121-.2103,.0779-.1382,.1173-.1886,.118-.1887,.0657,.3827,.2453,1.4457,.3765,2.455,.1875,1.3638,.225,1.4519,.3751,2.5958,.15,1.188,.3937,2.2219,.4313,2.4199q.0375,.22,0,.3081c-.0188,.0879-.225,.3739-.5438,.9019-.3188,.4839-.5625,.8579-.6375,.9899-.0563,.132-.0188,.154,.0937,.176h1.1006c.2157,0,.3886,.1763,.3854,.392-.0003,.0229-.0009,.0465-.0015,.0709-.031,1.1342-1.9063,1.7763-2.0335,1.8183-2.3358,.7712-5.8977-.1862-7.813-1.5261-1.7397-1.2171-2.8133-3.2344-1.6589-4.6107,.7189-.8571,2.125-1.2549,1.873-1.9157-.1525-.3999-.8598-.7581-1.4449-.7143-.7137,.0534-1.0882,.6934-1.3378,1.1365-.9687,1.7194-.2474,3.3751,.0535,3.9613,.2705,.5268,.8558,1.6251,2.4616,2.695,.8618,.5742,2.5054,1.6693,5.2443,1.9157,0,0,2.7316,.2457,5.2443-.6494,.4646-.1655,.7028-.2949,.8562-.3896,1.1487-.7092,1.1835-1.7186,1.1362-2.198-.0005-.0041-.0011-.0083-.0017-.0125-.0145-.1051-.047-.2066-.0951-.3012-.0864-.1703-.229-.4566-.4059-.728-.2438-.396-.4127-.7481-.4876-.836-.0563-.088-.075-.154-.0938-.308-.0375-.154-.1126-.8801-.3937-2.7499-.2813-1.8039-.5251-3.8278-.7501-5.3237-.0171-.1262-.034-.2491-.0506-.3691-.0139-.1006-.015-.2659-.0028-.3667,.0948-.7837,.2403-1.3613,1.1437-2.564,.6451-.8588,1.0444-.9896,1.4332-1.1752,.1184-.0565,.2674-.1148,.4401-.1706,.0646-.0209,.1311-.036,.1981-.0471,.0958-.0158,.2048-.0342,.2881-.043,.9502-.1013,2.1143,.1234,2.25,.622,.0712,.2616-.1894,.4201-.1031,.7212,.1465,.5115,1.1283,.8573,1.4475,.5566,.2565-.2417,.0913-.9072-.1801-1.3136Z"/>
  </a>
  <a xlink:href="87.2558823529412">
    <path id="fullLogo-3" data-name="fullLogo" d="M27.9064,22.3178c-.0409-.0639-.6006-.8423-.6689-.906-.0682-.0639-.0682-.0893-.0955-.1532-.0273-.0511-.1365-.3063-.3276-.7913-.2048-.4721-.5052-1.1357-.7372-1.6843-.2048-.536-.7508-1.8122-.8191-1.9269-.0546-.0895,.0137-.1149,.0819-.2042,.0819-.0639,.4095-.5105,.6962-.9571,.273-.4595,.4368-.8423,.4641-.8934,.0273-.0637,.0409-.1147,.0955-.1658,.041-.0382,.1502-.2425,.314-.4595,.1775-.2297,.3003-.4593,.314-.5104,.0136-.0639,.0409-.1149-.041-.1149-.0682,.0128-.8464-.0126-1.3105-.0126-.4504-.0128-1.4743,0-1.5289-.0128-.0546,0-.0546,.0254-.0273,.0765s.1638,.2298,.3958,.5488c.2321,.2935,.355,.4593,.3959,.5232,.0546,.0765,.0273,.0893,0,.1404-.0136,.0511-.0546,.1404-.2867,.587-.2321,.4467-.5324,.8678-.8191,1.1867-.3003,.3446-.6416,.587-.6962,.6253-.0682,.0382-.0682,.0128-.0682-.0383,0-.0765-.0137-.906,0-1.4292,0-.5232-.0137-.906-.0137-.9699,0-.0767,0-.0893,.0137-.1275,.0136-.0511,.1228-.2042,.314-.4595,.1775-.2425,.3822-.5104,.4231-.587q.041-.0637-.0546-.0765c-.0682,0-.9283-.0128-1.3924,0-.4504,0-1.3514,.0128-1.4334,.0128-.0682,0-.0819,.0126-.0409,.0511,.0273,.0637,.1775,.2425,.3958,.5486,.2185,.2935,.355,.4849,.3959,.536,.0273,.0383,.0273,.0639,.0546,.1275,0,.0639,.0136,.587,.0273,1.493,.0136,.9188,.0273,1.5697,.0273,1.6208,0,.0637-.0137,.0893-.0546,.1275-.0409,.0254-1.1037,.8223-1.2512,.9432-.1548,.1268-.9443,.6405-1.1627,1.0617-.2321,.4211-.0955,.9315,.2048,1.1995,.2582,.2413,.4515,.1635,.5349,.114,.0743-.0628,.0946-.1393,.1091-.2303,.0071-.0445,.0329-.1781-.0345-.1864-.055-.0058-.0974-.0209-.1617-.1071-.0889-.1192-.0725-.2864,.019-.4037,.3771-.4833,1.7095-1.4504,1.7559-1.4721,.041-.0128,.041,.0254,.041,.0765,.0136,.0382,0,.587,.0273,1.1102,.0136,.536,.0136,.8678,.0136,.9571,.0137,.0893-.0136,.1532-.0409,.217-.041,.0511-.0819,.1147-.2867,.4083-.2048,.2935-.3822,.5488-.4232,.5998-.0409,.0765-.0136,.0893,.041,.1021,.0682,0,.9419,.0254,1.4607,.0126,.5188,0,1.3241,.0256,1.3788,.0128,.0683,0,.0683-.0382,.0273-.0765-.0273-.0511-.273-.3702-.4369-.5998-.1637-.2297-.2867-.4083-.3276-.4721-.0409-.0767-.0546-.1021-.0546-.1786,.0137-.0895-.0136-1.2762-.0136-1.9143-.0137-.6507,0-.8549,0-.906,0-.0382-.0137-.0382,.0273-.0637,.0273-.0384,.1911-.1404,.4231-.2935,.2458-.1404,.2594-.1914,.314-.2425,.0682-.0511,.0546-.0383,.0819,0,.0136,.0382,.4915,1.1739,.8191,1.9269,.314,.7785,.6962,1.5695,.7098,1.6078,.0137,.0639,0,.0767-.0273,.1149-.0136,.0382-.1365,.2042-.3276,.4593-.1638,.2553-.3413,.4721-.3959,.5616-.0682,.0893,.0137,.0765,.0683,.0765h1.4198c.6143-.0128,1.3514-.0128,1.447-.0254,.0956-.0128,.0956-.0384,.0273-.1149Z"/>
  </a>
  <path id="fullLogo-4" data-name="fullLogo" d="M29.6959,13.5383c.587-.0128,1.3651,0,1.4607,0,.0819,.0126,.0819,.0511,.0546,.0893-.0546,.1147-.2458,.3318-.4095,.5614-.1912,.2297-.3549,.4977-.3822,.5488-.041,.0511-.041,.1021-.041,.1276,0,.0382,.041,1.6717,.041,3.0115-.0137,1.3399,.0136,3.1775,.0136,3.2286,0,.0767,.0137,.0893,.0273,.1276,.0137,.0511,.2458,.3702,.4232,.5744,.1638,.2169,.3549,.4848,.3958,.5358,.0273,.0511,.041,.0895-.0136,.1021-.0956,.0128-.7918,.0128-1.5017,0-.7235,0-1.3105,0-1.3651-.0126-.0546-.0128-.1364-.0128-.0819-.1021,.0683-.0893,.2321-.3063,.3959-.5742,.1912-.2681,.3003-.4467,.3276-.4849,.0273-.0384,.0273-.0639,.0273-.1021,0-.0767-.0409-1.9397-.0409-3.2286-.0137-1.3016-.0137-2.9989-.0273-3.0754,0-.0765-.0137-.1149-.0546-.166-.0409-.0382-.1775-.2169-.3686-.4848-.1911-.2809-.3685-.4977-.4095-.5616-.0409-.0511,0-.1021,.041-.1021,.0682,0,.8873,0,1.488-.0126Z"/>
  <path id="fullLogo-5" data-name="fullLogo" d="M33.7105,14.8654c-.0136,.0639,.0137,.8806,.0137,.9188,0,.0511,.0136,.0639,.0682,.0639s1.4607,0,2.0614-.0256c.6143-.0254,.8328-.1786,.9283-.2297,.1092-.0511,.1092-.0765,.2321-.0511,.1364,.0128,.1501,.0511,.1501,.1021s-.1912,.5232-.3822,1.0336c-.1775,.5105-.2594,.7402-.3276,.8041-.0683,.0893-.1638,.0126-.1912-.0511-.0273-.0767-.0546-.1532-.1501-.2298-.0819-.0893-.1912-.1019-.3822-.1147-.1775-.0382-1.8566-.0382-1.9385-.0382-.0546,0-.0819,.0382-.0682,.0765,.0136,.0382,.0409,.5488,.0409,1.276,.0137,.7402,.041,1.7866,.041,2.0418,.0136,.2553-.041,.5997-.041,.7018,0,.0767,.041,.0767,.0683,.0639,.0409-.0128,.1091-.0382,.4641-.166,.3958-.1276,.8191-.0637,1.6927,.0767,.8464,.1276,.9555,.1021,1.2013,.0128,.2594-.1021,.314-.2553,.3959-.3318,.0818-.0639,.1501,.0765,.1364,.1404-.0273,.0637-.2184,.6763-.3276,1.0208-.1092,.3446-.2185,.702-.2594,.7785-.0546,.0639-.1092,.0382-.1501,.0128-.041-.0382-.1775-.1404-.2458-.1786-.0818-.0511-.3003-.1021-.5051-.1277-.1911-.0254-1.2423,0-1.993-.0126-.7235-.0128-2.4709,0-2.5255,.0126-.0682,0-.0955-.0511-.0546-.1021,.0273-.0511,.587-.8039,.6553-.9186,.0682-.1021,.1091-.217,.1091-.3956,0-.166-.0273-.4977-.0409-1.1995-.0137-.6892-.0137-1.6462-.0409-2.0801,0-.4593-.0273-2.7436-.0137-2.884,0-.1149-.0136-.1149-.0682-.2297-.0546-.1149-.7235-.9827-.7508-1.0081-.0273-.0256,.0273-.0639,.0682-.0639,.0546,0,.4915,0,.9556-.0254,.4641,0,2.034-.0128,2.3207,0,.3003,0,.6416,0,.86-.0639,.2321-.0639,.2731-.166,.3686-.2425,.1228-.0639,.2184-.0128,.2594,.0382,.0546,.0639,.2048,.4595,.3822,.9444,.2048,.4593,.2867,.689,.314,.7272,.0273,.0639,.0136,.0895-.0137,.1149-.0409,.0256-.0819,.0382-.1364,.0511-.0546,.0128-.041,.0128-.1092-.0254-.0682-.0384-.3549-.166-.628-.217-.3003-.0511-.7918-.0511-1.2695-.0639-.4915,0-1.0648-.0126-1.1195,0-.0409,.0128-.0546-.0126-.0546,.0639Z"/>
  <path id="fullLogo-6" data-name="fullLogo" d="M26.0489,35.339c-.0682,.0125-.955,.0125-1.5415,.0251-.573,.0251-1.0913-.0126-1.2142-.0126-.15,0-.1228-.0504-.0955-.1132,.0409-.0504,.0682-.063,.2046-.2895,.1637-.2265,.3274-.4657,.4638-.6544,.1092-.1763,.0682-.2267,.0546-.4406-.0137-.2014-.0273-.579-.0273-1.032-.0137-.4406-.0273-1.095-.0273-1.1327-.0136-.0504,.0136-.1133-.0682-.1133-.0683,0-.15,.0504-.5321,.0754-.4093,.0253-.7502-.2642-1.105-.2769-.3683-.0251-.5183,.1007-.5729,.2014-.0683,.1007-.1092,.2518-.2183,1.1327-.1228,.8685-.1228,1.4096-.0955,1.4726,0,.0754,0,.0881,.0409,.1511,.0546,.0504,.1364,.1888,.3411,.453,.191,.2644,.3138,.4153,.3684,.4909,.0409,.063,.0136,.0754-.0546,.0881-.0682,0-.9004,0-1.5825,.0126-.6548,0-1.0777-.0126-1.1732-.0253-.0819,0-.0409-.0251,0-.1132,.041-.063,.0955-.126,.2456-.3776,.1636-.2518,.2864-.4028,.3547-.5035,.0819-.1132,.0819-.1258,.0819-.2642,0-.1133,.0136-.2644,.0955-.9943,.0819-.7174,.1909-1.0196,.4093-1.9131,.2182-.881,.7093-1.7998,.955-2.2404,.2455-.4404,.723-1.0445,.7775-1.0948,.0273-.0379,.0273-.063-.0272-.0756-.0546,0-.1364-.0126-.4365-.0251-.3138,0-.5867,.0125-.9822,.0754-.382,.0756-.5866,.1888-.6685,.2141-.0819,.0377-.15,.0251-.1092-.1007,.0273-.126,.4774-1.2587,.5593-1.4222,.0273-.063,0-.1763,.1228-.2391,.0818-.0504,.2182,0,.3274,.1132,.1092,.0882,.382,.126,.6002,.1511,.2319,.0253,1.1869,.0377,1.8963,.0126,.7093-.0126,2.0053,0,2.2509,0,.2455,.0126,.1637,.0754,.15,.1258-.0136,.0504-.1637,.2141-.3274,.4783-.1637,.2644-.2183,.3649-.2865,.4279-.0409,.0504-.0546,.063-.0546,.1511,0,.0754,.0273,2.0767,.041,2.9325,.0136,.8432,.1091,3.3478,.0955,3.4234,0,.0881,.0273,.1384,.0682,.2014,.041,.0628,.2046,.2516,.3957,.4907,.2046,.2391,.341,.4406,.3683,.4909,.0273,.0251,.0273,.063-.0682,.063Zm-2.2919-7.4636c0-.1007-.0546-.2518-.3001-.1258-.1637,.0881-.3957,.2391-.5593,.516-.15,.2769-.3684,.6418-.573,1.0697-.1773,.4153-.3411,.8055-.3411,.8685,0,.0504-.0273,.0504,.041,.0504,.0682,0,.3138-.0377,.6002,.063,.2729,.1005,.5457,.2139,.7913,.1888,.2319-.0126,.3274-.063,.3547-.1637,.0273-.1133,.0136-.1762,.0136-.3021,0-.1384,.0137-.4027-.0136-1.0194-.0137-.6167,0-1.0196-.0137-1.1454Z"/>
  <path id="fullLogo-7" data-name="fullLogo" d="M26.6316,26.9691c.2728-.0881,1.5961-.5034,2.6601-.5537,1.0368-.0504,1.828-.0253,2.3737,.4657,.5184,.4657,.5457,.8055,.532,1.1201,0,.3272-.0273,.6546-.4093,.9692-.3138,.3272-.8867,.5413-1.105,.5413-.0955,0-.0546,.0502-.0136,.0628,.0546,.0126,.532,.1133,.8731,.6041,.3274,.5035,.4638,1.5607,.5456,2.0012,.0819,.4783,.191,1.1705,.2729,1.7747,.0682,.5537,.1636,.8936,.3547,1.032,.1637,.1384,.1773,.1637,.3138,.2014,.1092,.0377,.1773,.0377,.0955,.1384s-.2046,.2642-.4229,.2895c-.2456,.0251-.6412,.0881-1.0232-.1133-.3001-.1511-.5047-.5286-.6821-1.032-.191-.642-.2865-1.8502-.4093-2.4292-.0819-.5664-.1364-1.2964-.4638-1.674-.3547-.3649-.6821-.302-.8185-.302s-.2592,.0377-.3001,.0504c-.041,0-.041-.0377-.0546-.0756,0-.0377-.0273-.1258-.0273-.4783-.0137-.3146-.0273-.5411-.0273-.5915,.0136-.0504,.0273-.063,.1092-.063,.0682,0,.3001,.0504,.7502,0,.4502-.0504,.6276-.1132,.764-.2895,.1636-.1888,.1909-.5411-.0273-.7676-.191-.2141-.7094-.2518-.9959-.1888-.2728,.0504-.7912,.1509-.914,.1888-.1228,.0377-.15,.0754-.1364,.1258,.0137,.063,.0819,.9566,.0956,1.674,0,.7425,.0136,2.555,.0273,3.1213,.0136,.5537,.0682,.9817,.0545,1.1454-.0136,.1509-.0136,.2642,.0683,.3523s.15,.1637,.3274,.4406c.191,.2895,.3684,.5286,.3957,.5664,.0409,.0377,.0545,.0881-.0683,.0881-.1364,0-.8321-.0251-1.4597-.0126-.6003,0-1.2687,.0126-1.3642,.0126-.0819-.0126-.0819-.0881-.0409-.1511,.0409-.0754,.1773-.2518,.3411-.5034,.1636-.2518,.2728-.4532,.3137-.516,.0273-.0881,.0273-.1007,.0273-.1637s0-.4907-.0136-1.5229c0-1.032-.0546-1.7368-.0546-2.5297s.0136-1.3971,0-1.5229c-.0137-.1133,0-.1133-.0682-.2014-.0546-.1133-.1092-.1635-.3275-.4783-.2182-.3146-.4365-.5664-.4501-.6418-.0273-.0756,.0273-.0756,.0546-.0756,.0955-.0251,.1909-.0504,.3274-.0881Z"/>
  <path id="fullLogo-8" data-name="fullLogo" d="M37.709,27.2209c.1637,.3523,.2865,.6671,.3138,.7425,.0273,.0756,.0409,.1762-.0955,.1007-.1364-.0754-.4775-.2642-.8186-.3272-.3137-.0754-.6139-.1762-1.1868-.1384-.5457,.0377-.9822,.1133-1.3779,.5664-.4093,.4406-.6412,1.1201-.6548,1.674-.0273,.5411-.0682,1.3843,0,1.8249,.0682,.4657,.1773,1.1705,.5184,1.7117,.3547,.5537,.6412,1.0697,1.4051,1.4096,.7776,.3651,1.5688,.3272,1.7326,.3525,.15,.0126,.2046,.0754,.1091,.1635-.0955,.0881-.3138,.1888-.5729,.2014-.2592,.0253-1.2687,.063-1.8826-.1258-.6003-.1763-1.3778-.7678-1.7462-1.2083-.3684-.453-.8185-1.1831-.9141-2.127-.0955-.9313-.1364-2.2277,.0819-2.9576,.2046-.7553,.5184-1.4601,1.1187-1.9635,.6139-.5286,1.0913-.7425,2.019-.7174,.9277,.0253,1.1187,.2265,1.2142,.3021,.0409,.0251,.0273,0,.0682-.0126,.0273-.0377,.2046-.2139,.2729-.2139,.0818,0,.0682,0,.0955,.0377,.0409,.0754,.15,.3523,.3001,.7048Z"/>
  <path id="fullLogo-9" data-name="fullLogo" d="M44.9972,35.2633c.0273,.0377,.0409,.0881-.0819,.0881-.15,0-.8049-.0125-1.3369-.0125-.5593,.0125-1.4051,0-1.4597,0-.0683,0-.0819-.0253-.041-.0882,.041-.0628,.2865-.3649,.4502-.6041,.1909-.2391,.2455-.3399,.2728-.3902s.0546-.0754,.0546-.1888c0-.1132-.0136-.9439,0-1.4222,0-.5034,.0273-2.5046,.0137-2.5423q-.0137-.0504-.0546-.063h-1.2278c-.4774,0-1.2686,0-1.3096,.0126-.0409,0-.0545,.0126-.0545,.063s-.0137,1.2334-.0137,1.976c0,.7301-.0136,1.976,0,2.0893,.0137,.1007,.0682,.1384,.1228,.2391,.0683,.0754,.0819,.0881,.2729,.3523,.2046,.277,.3274,.4658,.3683,.5162,.0546,.0377,.1092,.0628-.0136,.0628-.1092,.0126-.7639,0-1.4324,0h-1.3369c-.0819,0-.15-.0125-.0819-.1132,.0819-.126,.15-.2518,.3684-.5286,.2046-.2769,.3001-.4028,.3274-.4532,.0273-.0377,.0546-.1384,.0546-.2012v-2.253c0-.516,0-1.6361-.0137-2.58,0-.9566-.0136-1.2838-.0136-1.3341,0-.0756,.0136-.0881-.0273-.1384-.0273-.0504-.1773-.2267-.382-.516-.191-.2895-.3547-.5035-.382-.5413s-.0683-.0881,.0818-.1007c.0956-.0126,.7367,0,1.3369-.0126,.6003-.0125,1.3233-.0125,1.3915-.0125,.0819,0,.1092,.0251,.0682,.0754-.0409,.0504-.1636,.3272-.382,.5916-.2182,.2769-.3001,.4279-.3274,.4657-.0273,.0504-.0273,.0754-.0273,.1007,0,.0251,.0273,.2895,.0137,.516-.0137,.3649,0,.4153,0,.4657-.0137,.0377,0,.063,.0682,.063,.0682,.0125,.7912,.0125,1.3915,0,.5866-.0126,1.0367-.0126,1.064-.0253,.0273,0,.1092,.0253,.1228-.0754,0-.0756-.0137-.2895-.0137-.5286,.0137-.2518,.0137-.3902,.0137-.4279,0-.0253,.0136-.0126,0-.0504-.0273-.0251-.1228-.1888-.3548-.4783-.2046-.3021-.4229-.5915-.4365-.6167-.0273-.0377-.0136-.0754,.041-.0754s.8458-.0126,1.4051,0c.573,0,1.3778-.0126,1.4461-.0126,.0546,.0126,.1364,.0126,.0682,.1133-.0819,.1132-.2728,.3523-.4229,.5664-.1774,.2391-.2729,.3649-.3138,.4279-.0273,.0504-.041,.0754-.041,.1384,0,.0504,.0273,1.0571,.0137,1.5731,0,.5162,0,1.7117-.0137,2.3033v2.3409c0,.1637,.0273,.2267,.0956,.2895,.0546,.0881,.1228,.2141,.3001,.4406,.15,.2139,.3547,.4909,.3684,.516Z"/>
  <path id="fullLogo-10" data-name="fullLogo" d="M52.1688,35.339c-.0682,.0125-.955,.0125-1.5415,.0251-.573,.0251-1.0913-.0126-1.2142-.0126-.15,0-.1228-.0504-.0955-.1132,.0409-.0504,.0682-.063,.2046-.2895,.1637-.2265,.3274-.4657,.4638-.6544,.1092-.1763,.0682-.2267,.0546-.4406-.0137-.2014-.0273-.579-.0273-1.032-.0137-.4406-.0273-1.095-.0273-1.1327-.0136-.0504,.0136-.1133-.0682-.1133-.0683,0-.15,.0504-.5321,.0754-.4093,.0253-.7502-.2642-1.105-.2769-.3683-.0251-.5183,.1007-.5729,.2014-.0683,.1007-.1092,.2518-.2183,1.1327-.1228,.8685-.1228,1.4096-.0955,1.4726,0,.0754,0,.0881,.0409,.1511,.0546,.0504,.1364,.1888,.3411,.453,.191,.2644,.3138,.4153,.3684,.4909,.0409,.063,.0136,.0754-.0546,.0881-.0682,0-.9004,0-1.5825,.0126-.6548,0-1.0777-.0126-1.1732-.0253-.0819,0-.0409-.0251,0-.1132,.041-.063,.0955-.126,.2456-.3776,.1636-.2518,.2864-.4028,.3547-.5035,.0819-.1132,.0819-.1258,.0819-.2642,0-.1133,.0136-.2644,.0955-.9943,.0819-.7174,.1909-1.0196,.4093-1.9131,.2182-.881,.7093-1.7998,.955-2.2404,.2455-.4404,.723-1.0445,.7775-1.0948,.0273-.0379,.0273-.063-.0272-.0756-.0546,0-.1364-.0126-.4365-.0251-.3138,0-.5867,.0125-.9822,.0754-.382,.0756-.5866,.1888-.6685,.2141-.0819,.0377-.15,.0251-.1092-.1007,.0273-.126,.4774-1.2587,.5593-1.4222,.0273-.063,0-.1763,.1228-.2391,.0818-.0504,.2182,0,.3274,.1132,.1092,.0882,.382,.126,.6002,.1511,.2319,.0253,1.1869,.0377,1.8963,.0126,.7093-.0126,2.0053,0,2.2509,0,.2455,.0126,.1637,.0754,.15,.1258-.0136,.0504-.1637,.2141-.3274,.4783-.1637,.2644-.2183,.3649-.2865,.4279-.0409,.0504-.0546,.063-.0546,.1511,0,.0754,.0273,2.0767,.041,2.9325,.0136,.8432,.1091,3.3478,.0955,3.4234,0,.0881,.0273,.1384,.0682,.2014,.041,.0628,.2046,.2516,.3957,.4907,.2046,.2391,.341,.4406,.3683,.4909,.0273,.0251,.0273,.063-.0682,.063Zm-2.2919-7.4636c0-.1007-.0546-.2518-.3001-.1258-.1637,.0881-.3957,.2391-.5593,.516-.15,.2769-.3684,.6418-.573,1.0697-.1773,.4153-.3411,.8055-.3411,.8685,0,.0504-.0273,.0504,.041,.0504,.0682,0,.3138-.0377,.6002,.063,.2729,.1005,.5457,.2139,.7913,.1888,.2319-.0126,.3274-.063,.3547-.1637,.0273-.1133,.0136-.1762,.0136-.3021,0-.1384,.0137-.4027-.0136-1.0194-.0137-.6167,0-1.0196-.0137-1.1454Z"/>
  <a xlink:href="87.2558823529412">
    <path id="fullLogo-11" data-name="fullLogo" d="M56.2034,36.5105c-.4158,1.3012-3.8941,1.4806-6.2852,1.2415-1.4603-.146-1.9899-.382-3.6693-.7896-5.0561-1.2269-10.7866-2.6172-13.3197,2.6216-.0637,.1316-.0998,.2661-.1071,.3996-.0282,.5196,.1916,.9765,.6193,1.2868,.3333,.2419,.7555,.37,1.1651,.37,.2202,0,.4369-.0371,.634-.1135,.6613-.2561,.8061-.868,.6563-1.3608-.1529-.5029-.6467-.9703-1.3701-.8087-.1255,.0281-.2406,.073-.3426,.1334-.0918,.0545-.2017,.0569-.2937,.0064-.0874-.0477-.1395-.1321-.1431-.2399-.0016-.0571,.0157-.1152,.0487-.1638,2.8949-4.2714,7.7318-2.7068,12.4097-1.1938,.4709,.1523,.956,.3093,1.432,.4577-.7247,.0925-1.2764,.3124-1.6874,.4763-.9489,.3788-1.2417,.7173-1.3907,.97-.0746,.1264-.3017,.5111-.1237,.7794,.2388,.3597,.9922,.2125,1.0775,.1943,.5369-.1136,.801-.4234,1.0809-.7513,.1658-.1945,.3372-.3955,.5796-.5779,.3137-.2362,.6977-.4015,1.1413-.4912,.5115-.1034,1.0576-.0876,1.6231,.0469,2.9819,.7097,6.2693,.9096,8.0495-2.9851,.0573-.1253,.1696-.3086,.2111-.4852,.0009-.0025,.0016-.0048,.0025-.0074,.0273-.0756,.1093-.3182,.201-.6654,.084-.318,.2865-.9692,.3001-1.0196,.0136-.0504-.0136-.1511-.1501-.0377-.1227,.1384-.3547,.3399-.8731,.3776-.5184,.0251-1.3506-.2642-1.9781-.2391-.532,.0377-.8185,.2642-.8731,.3021-.0682,.0377-.0819,.0125-.0819-.0756,0-.1258,.0546-.6671,.0546-1.3466,.0136-.6671,.0136-1.7621,.0273-2.5299,.0136-.7802,0-2.2907,0-2.3788,0-.1007,0-.1258,.0409-.1888,.0546-.0754,.1229-.2265,.3547-.5034,.2183-.2895,.3411-.4657,.3821-.5413,.0546-.0881,.0546-.1132-.0819-.1132-.1365-.0126-.7912-.0253-1.3915-.0126-.6003,.0126-1.1459,.0251-1.3505,.0377-.1092,0-.1501,.0756-.1228,.1258,.0273,.063,.191,.277,.382,.4909,.15,.2141,.3001,.4153,.341,.4657,.0546,.063,.041,.063,.0546,.1133,.0137,.0504-.0136,.8936-.0273,1.7495,0,.8306-.0136,2.769-.0136,3.4359-.0137,.6671,0,1.095,0,1.1329,.0136,.0628,0,.0881-.0273,.1258-.0137,.0377-.1365,.1888-.3138,.453-.191,.2518-.3684,.5539-.3956,.6043-.0136,.0628,0,.0754,.0546,.0754,.6594,0,1.3198,.0372,1.9781,0,.7421-.042,1.1131-.063,1.3365,.1643,.2435,.2477,.2668,.6951,.1751,.9821Z"/>
  </a>
  <a xlink:href="87.2558823529412">
    <path id="fullLogo-12" data-name="fullLogo" d="M15.6068,21.8711c-.1912-.2425-.3549-.4339-.3959-.4976-.0409-.0639-.0682-.1149-.0682-.2042,.0136-.0767-.0819-2.6161-.0955-3.471-.006-.3796-.0146-.9813-.0224-1.5447-.2896,.0419-.5735,.0626-.8401,.0626-.091,0-.1821-.0022-.2692-.0065-.0954-.0039-.1891-.0106-.2817-.0192,.0183,.5091,.0071,.7424,.0071,.8698,0,.1277,.0137,.1914-.0136,.3063-.0273,.1021-.1228,.1532-.3549,.166-.2458,.0254-.5188-.0895-.7918-.1914-.2866-.1021-.5324-.0639-.6006-.0639-.0683,0-.041,0-.041-.0511,0-.0639,.1638-.4595,.3413-.8806,.0707-.1497,.1428-.2912,.2134-.4247-.3227-.1128-.624-.2538-.9045-.4156-.102,.1496-.2014,.3053-.2781,.4447-.2458,.4467-.7372,1.3783-.9556,2.2715-.2185,.906-.3276,1.2123-.4095,1.9397-.0819,.74-.0955,.8932-.0955,1.0081,0,.1404,0,.1532-.0819,.2679-.0683,.1021-.1912,.2553-.3549,.5105-.1502,.2551-.2048,.319-.2458,.3828-.0409,.0893-.0819,.1147,0,.1147,.0955,.0128,.5188,.0256,1.174,.0256,.6826-.0128,1.5154-.0128,1.5836-.0128,.0682-.0128,.0955-.0254,.0546-.0893-.0546-.0767-.1775-.2297-.3686-.4977-.2048-.2679-.2867-.4083-.3413-.4593-.0409-.0639-.0409-.0767-.0409-.1532-.0273-.0639-.0273-.6125,.0955-1.4931,.1092-.8932,.1501-1.0464,.2185-1.1485,.0546-.1021,.2048-.2297,.5733-.2042,.355,.0128,.6962,.3063,1.1057,.2807,.3823-.0254,.4642-.0765,.5325-.0765,.0818,0,.0546,.0639,.0682,.1149,0,.0383,.0136,.7018,.0273,1.1485,0,.4593,.0136,.8421,.0273,1.0464,.0136,.2169,.0546,.2679-.0546,.4467-.1365,.1914-.3003,.4339-.4641,.6635-.1365,.2297-.1639,.2425-.2048,.2935-.0273,.0637-.0546,.1147,.0955,.1147,.1229,0,.6416,.0383,1.215,.0128,.587-.0128,1.4744-.0128,1.5426-.0254,.0955,0,.0955-.0384,.0682-.0639-.0273-.0511-.1638-.2553-.3685-.4977Z"/>
  </a>
  <a xlink:href="87.2558823529412">
    <path id="fullLogo-13" data-name="fullLogo" d="M12.3769,13.7467c.2907,.2721,.9716,.9093,1.7923,1.2477,.2112,.0871,.433,.1312,.6591,.1312,.0615,0,.1223-.004,.1825-.0107-.0029-.2227-.0047-.3703-.0047-.3898,0-.0893,.0137-.1021,.0546-.1532,.0682-.0639,.1228-.1658,.2867-.4339,.1638-.2679,.314-.4339,.3276-.4849,.0137-.0511,.0955-.1147-.1501-.1275-.2458,0-1.5426-.0128-2.2524,0-.3483,.0125-.7555,.0158-1.1076,.0129,.0699,.071,.1402,.1411,.2121,.2083Z"/>
  </a>
  <path id="fullLogo-14" data-name="fullLogo" d="M50.8377,13.9712c-.0468,.1247-.1403,.2494-.078,.4365,.0624-.078,.1091-.1247,.1403-.1871,1.294-2.3853,2.0735-4.9109,2.0579-7.6548,0-.343-.0312-.686-.1247-1.0134-.0312-.078-.0468-.1871-.1403-.2027-.1091-.0156-.1403,.0935-.1715,.1715l-1.2628,2.1515c-.0624,.1091-.1247,.2027-.0468,.343,.6236,1.0757,.4833,2.2138,.3118,3.3519-.1403,.8886-.4053,1.7461-.686,2.6036Zm-1.5434-8.6058c-.7172,2.245-1.2784,4.5368-1.3564,6.9065v.343c.0468,.0156,.078,.0156,.1091,.0312,.2339-.5145,.4833-1.029,.7327-1.5434,.3118-.6548,.6392-1.3096,1.0445-1.9176,.2183-.3274,.5301-.5924,.7639-.951,.7327-1.1849,1.1381-2.4789,1.4031-3.8352,.1247-.6548,.078-1.3096-.2183-1.9332-.265-.608-.5768-.6392-.9822-.1247-.7016,.9042-1.1381,1.9488-1.4967,3.0245Zm-2.3385,13.0646c-.0624,.343,.2183,.3274,.3742,.4053,.1403,.078,.2339,.0312,.2962-.1247,.7172-1.7461,1.6682-3.4143,2.1982-5.2539,.3118-1.0913,.5768-2.2138,.4833-3.3675-.0156-.2339,.0156-.5924-.1715-.6548-.2183-.0624-.2962,.2962-.3898,.4833-.7795,1.4499-1.5902,2.8842-2.0579,4.4588-.4053,1.3252-.6236,2.7127-.7327,4.0535Zm-1.029,.5768c-.3742-.0312-.7639-.078-.9354,.3742-.1715,.4365,.0312,.951,.4209,1.216,.5612,.3742,1.4187,.3118,1.9332-.1403,.2494-.2339,.5612-.2027,.8575-.1247,.9666,.2494,1.8864,.6704,2.8062,1.0601,1.216,.5145,2.4165,1.0757,3.4922,1.8864,.5612,.4365,1.0445,.9354,1.5746,1.3719,.2494,.2183,.5145,.3742,.8419,.3742,.1091,0,.2494,.078,.2962-.078,.0468-.1091-.0312-.1871-.1091-.265-.4833-.4833-.9666-.9666-1.5278-1.3719-1.3096-.951-2.7907-1.6214-4.1782-2.4321-.4521-.2806-1.3564-.7795-1.8552-.9978-1.1849-.343-2.3697-.7639-3.6169-.8731Zm-.0468-9.3697c-.7795,1.7461-1.1693,3.539-.6704,5.4566,.2806,1.0757,.5145,2.167,.7639,3.2584,.0468,.2027,.1091,.3742,.3898,.343,.3118-.0312,.2027-.265,.2183-.4209v-1.8552c0-1.902,.1871-3.804,.3898-5.6904,.078-.5768-.1559-1.0601-.4989-1.4967-.1403-.1715-.2806-.1403-.3898,.0312-.0624,.1091-.1403,.2339-.2027,.3742Zm-1.5278,25.5213c.0312,.1403-.0312,.2494,.0935,.265,.1091,.0156,.1403-.078,.1871-.1559,.686-1.1069,1.4811-2.167,1.637-3.539,.0468-.5612,.3586-1.0445,.608-1.5434,.686-1.3564,1.3719-2.6971,1.7149-4.1938q.1871-.7327-.5612-.5924c-.5924,.0935-1.2005,.1715-1.7929,.1559-.265-.0156-.3742,.0468-.4365,.3274-.1559,.8107-.2962,1.6214-.2962,2.4321-.0156,1.6526-.3586,3.2584-.7327,4.8486-.1715,.686-.2806,1.3719-.4209,1.9956Zm-1.0757,1.4811c.0624,.2962,0,.5924-.0935,.8731-.0468,.1559-.1403,.3898,.078,.4521,.2339,.078,.4053-.0624,.4989-.2962,.1091-.2962,.1091-.5924,.1247-.8886,.078-1.4499,.4833-2.853,.7639-4.2561,.1715-.8731,.5145-1.6993,.5145-2.6036,.0156-.3274,.0156-.6548,.0156-.9822,.0312-.9822,.1871-1.9332,.3586-2.8842,.0624-.3742,.0468-.5924-.4365-.5924-.343,0-.7016-.1091-1.0445-.1715-.5301-.0935-.7483,.0468-.8886,.5768-.2027,.7795,0,1.5278,.1403,2.2918,.0624,.3898,.1559,.7795,.265,1.1693,.1871,.6236,.0312,1.216-.0935,1.8085-.3586,1.8241-.5145,3.6481-.2027,5.5034Zm-.5301-18.9266c-.2806-.0468-.5145,.078-.7172,.2183-.5301,.3586-.6548,.9198-.7016,1.4967,.0312,.6704,.2027,1.2784,.6236,1.8085,.3742,.4677,.7795,.5301,1.2784,.1715,.3898-.265,.7795-.5301,1.2628-.5612,.2183-.0156,.1871-.1247,.1403-.265-.078-.2183-.2339-.4053-.4209-.5301-.343-.2339-.3898-.4989-.2183-.8886,.2806-.5924,.2339-.5612-.2806-.9822-.2962-.2339-.608-.3898-.9666-.4677Zm-2.2294-8.3876c1.6682,1.5902,2.6971,3.6014,3.8352,5.5501,.1247,.2183,.2339,.4209,.3586,.6392-.7327-2.5256-1.7929-4.8642-3.8976-6.5635-.078-.0624-.1871-.2806-.343-.1091-.1247,.1403-.1403,.3118,.0468,.4833Zm-.4365-.8886c-.1091-1.4499-.5768-2.7595-1.4031-3.9443-.078-.1247-.1715-.2339-.265-.343-.1559-.1559-.3118-.3274-.5457-.2339-.2183,.0935-.2339,.3118-.2339,.5145-.0468,.7795,.0624,1.5434,.2494,2.2918,.4521,1.7461,.9354,3.4766,1.8085,5.0668,.078,.1559,.1871,.3118,.2806,.4677-.0312-.6236-.2027-1.216-.2962-1.8085-.0624-.4365-.0468-.8263,.265-1.1693,.2339-.2494,.1559-.5457,.1403-.8419Zm-2.4165,8.8397c-1.0445-.4521-2.0891-.8575-3.2272-.9822-.608-.0624-1.1849-.2962-1.7773-.4989,.3274,.3118,.7327,.4833,1.1381,.6548,1.8241,.7951,3.6169,1.6682,5.5657,2.1047,.4677,.0935,.9354,.1247,1.4031,.1871,.3742,.0624,.4053-.2494,.4833-.4833,.0468-.1559-.1247-.1247-.2027-.1247-1.2005,0-2.3074-.3742-3.3831-.8575Zm-.8263-10.3052c-.2962-.9666-.5457-1.9644-.3742-2.9933,.0935-.5768,.2494-1.1537,.8886-1.3564,.608-.2027,1.0757,.1247,1.4811,.5612,.5768,.6236,1.1693,1.2784,1.4655,2.0891,.2806,.7951,.7483,1.4499,1.2316,2.1203,1.0601,1.4655,1.9956,3.0089,2.8842,4.5835,.0624,.1247,.1091,.2962,.2962,.3742,.1403-.6392,.3118-1.2784,.5301-1.902,.1559-.4677,.3274-.951,.608-1.3719,.2494-.3742,.5301-.3898,.8419-.0468,.1403,.1559,.2494,.343,.3742,.5145,.1247-.0624,.1247-.1715,.1403-.265,.2339-1.5278,.5612-3.0401,.9666-4.5368,.2962-1.1381,.5768-2.2918,1.2005-3.3207,.343-.5612,.7483-1.029,1.3564-1.2784,.7327-.3118,1.4031-.1091,1.7305,.5768,.608,1.2472,.9042,2.5568,.4677,3.9443-.0468,.1091-.1091,.2183-.0468,.3274,.4677,.7016,.3742,1.5123,.343,2.2918-.0624,2.3541-.7639,4.5524-1.8241,6.6415-.0624,.1403-.2027,.2494-.1403,.4365,.0312-.0156,.0624,0,.078-.0156,.1091-.078,.2027-.1715,.2962-.2494,1.4967-1.3096,2.9777-2.6503,4.6771-3.7105,.343-.2027,.7172-.343,1.0913-.1247,.4053,.2183,.3586,.6392,.3586,1.029,0,.0624-.0156,.1403-.0468,.2027-.2806,.9822-1.216,2.245-1.216,2.245-.1403,.1871-.265,.3586-.3898,.5145-.4209,.5612-.7795,.9666-.9042,1.1225-.608,.686-.9354,1.0601-1.4811,1.4967-.1403,.1247-.6392,.5145-1.3564,.9198-.4833,.265-.8886,.4365-1.2005,.5768-1.1381,.4677-2.0423,.6704-1.98,.951,.0156,.0312-.0312,.0312,.0624,.1715,.0156,.0156,.0312,.0468,.0624,.078,.3742,.1559,.8419,.3118,1.2005,.5145,.8263,.4677,1.2316,.6704,1.4655,.8107,.078,.0468,.265,.1247,.5301,.2806,.2183,.1091,1.5278,.8419,1.637,.9042,.3118,.2027,.5457,.343,.7639,.4677,.4209,.265,.7639,.4989,1.029,.6704,.343,.2339,.5924,.4521,.7483,.608,.0935,.0935,.1559,.1559,.4209,.4053,.1715,.1715,.3118,.3118,.4209,.4053,.078,.1403,.078,.2339,.0624,.2962-.0624,.2806-.608,.4521-1.0134,.3274-.078-.0156-.2183-.1247-.5145-.343-.1247-.078-.3274-.2339-.5924-.4365-.2183-.1715-.343-.2806-.4833-.3898-.0468-.078-.3586-.3274-.4677-.4677-.2962-.3118-.7795-.7483-2.9466-1.6682-.3118-.1403-.5145-.2183-.5612-.2339-1.2472-.4833-1.902-.5768-2.2918-.4053-.078,.0312-.2027,.0935-.2806,.2339-.0468,.078-.0468,.1247-.0468,.4521-.0156,.3586-.0156,.4209,.0312,.5301,.0624,.1247,.1559,.1871,.1871,.2339,.343,.3742,.5612,.7639,.6236,1.216,.0312,.2183,.0156,.3742-.1247,.9822-.2027,.951-.2962,1.4343-.3898,1.6682-.4209,1.2316-.6704,1.9488-1.2005,2.7751,0,0-.5145,.7795-.7016,1.4187,0,.0156-.0468,.1403-.0935,.3274-.0156,.0468-.1091,.3586-.1403,.5145-.1091,.3586-.1559,.6236-.1715,.7483-.078,.3898-.2183,.7172-.6548,1.6058-.4521,.951-.4989,1.029-.7016,1.4655-.8107,1.6993-1.2005,2.5568-.9666,3.1492,.1247,.3118,.1559,.6392,.2339,.9666,.0312,.078,.0935,.3274-.0156,.4833-.0312,.0468-.078,.0935-.1403,.1247-.2806,.1247-.4209-.1091-.5457-.2962-.1871-.2806-.3118-.1715-.4209,.0468-.1247,.2339-.2339,.4677-.4209,.6548-.1091,.1247-.265,.1715-.4209,.1247-.2027-.0624-.1403-.2339-.1247-.3742,.0468-.686,.1715-1.3564,.3586-2.0267,.1247-.4053,.0312-.3274,.1091-2.2918,.0624-1.3252,.078-1.9956,.1403-2.3697,.2962-2.0735,.4521-3.1025,.4833-3.2116s.0156-.2339,.0156-.3742c-.0156-.5612-.1247-.8575-.2806-1.559-.078-.3742-.1559-.7016-.2027-1.1537-.0624-.4365-.0935-.7327-.0468-1.0913,.0468-.2806,.1247-.6704,.3742-1.1225,0-.4209,.078-.7327,.1559-.9354,.0468-.1403,.2027-.5768,.4833-1.1537,.1247-.2339,.2027-.3742,.1715-.5457-.0624-.2339-.2962-.3742-.4209-.4833-.1403-.1091-.2806-.1715-.4365-.1559-.2339,.0156-.3898,.1247-.5768,.1247-.3274,0-.8107-.265-1.1069-.8731-.2183-.4677-.4833-1.4031-.4521-1.7617,.0156-.0312,.0156-.1403-.0468-.2183-.0468-.0624-.1247-.078-.2494-.078-.4053,0-.7951-.0624-1.1849-.1559-2.51-.5612-4.8174-1.637-7.0936-2.7907-.6548-.343-1.1849-.8419-1.6058-1.4655-.0935-.1247-.2494-.2962-.078-.4521,.1559-.1247,.2806,.0624,.3898,.1559,.9822,.8107,2.0891,1.3875,3.3519,1.559,1.1849,.1715,2.2918,.5612,3.3831,1.0445,.3118,.1403,.6392,.2806,.9666,.3898,1.294,.4521,2.6036,.686,3.8664-.1403,0-.0156-.0156-.0624-.0312-.0935-1.4811-1.8085-2.588-3.8508-3.8352-5.7996-.8575-1.3719-1.5434-2.8062-1.9956-4.3653Z"/>
  <a xlink:href="1.4210854715202e-14">
    <path id="fullLogo-15" data-name="fullLogo" d="M34.4368,16.2941c1.1381,.1247,2.1826,.5301,3.2272,.9822,1.0757,.4833,2.1826,.8575,3.3831,.8575,.078,0,.2494-.0312,.2027,.1247-.078,.2339-.1091,.5457-.4833,.4833-.4677-.0624-.9354-.0935-1.4031-.1871-1.9488-.4365-3.7417-1.3096-5.5657-2.1047-.4053-.1715-.8107-.343-1.1381-.6548,.5924,.2027,1.1693,.4365,1.7773,.4989Z" style="fill-opacity: 0"/>
  </a>
  <a xlink:href="1.4210854715202e-14">
    <path id="fullLogo-16" data-name="fullLogo" d="M43.1829,37.5125c.0935-.2806,.1559-.5768,.0935-.8731-.3118-1.8552-.1559-3.6793,.2027-5.5034,.1247-.5924,.2806-1.1849,.0935-1.8085-.1091-.3898-.2027-.7795-.265-1.1693-.1403-.7639-.343-1.5123-.1403-2.2918,.1403-.5301,.3586-.6704,.8886-.5768,.343,.0624,.7016,.1715,1.0445,.1715,.4833,0,.4989,.2183,.4365,.5924-.1715,.951-.3274,1.902-.3586,2.8842,0,.3274,0,.6548-.0156,.9822,0,.9042-.343,1.7305-.5145,2.6036-.2806,1.4031-.686,2.8062-.7639,4.2561-.0156,.2962-.0156,.5924-.1247,.8886-.0935,.2339-.265,.3742-.4989,.2962-.2183-.0624-.1247-.2962-.078-.4521Z" style="fill: #353d32;"/>
  </a>
  <a xlink:href="1.4210854715202e-14">
    <path id="fullLogo-17" data-name="fullLogo" d="M44.4457,35.4234c-.1247-.0156-.0624-.1247-.0935-.265,.1403-.6236,.2494-1.3096,.4209-1.9956,.3742-1.5902,.7172-3.196,.7327-4.8486,0-.8107,.1403-1.6214,.2962-2.4321,.0624-.2806,.1715-.343,.4365-.3274,.5924,.0156,1.2005-.0624,1.7929-.1559q.7483-.1403,.5612,.5924c-.343,1.4967-1.029,2.8374-1.7149,4.1938-.2494,.4989-.5612,.9822-.608,1.5434-.1559,1.3719-.951,2.4321-1.637,3.539-.0468,.078-.078,.1715-.1871,.1559Z" style="fill: #353d32;"/>
  </a>
  <a xlink:href="87.2558823529412">
    <path id="fullLogo-18" data-name="fullLogo" d="M21.2229,14.9547c-.0273-.0765-.1501-.3956-.314-.7528-.1501-.3574-.2594-.6381-.3003-.7146-.0273-.0383-.0137-.0383-.0955-.0383-.0683,0-.2458,.1786-.2731,.2169-.0409,.0128-.0273,.0383-.0682,.0128-.0955-.0767-.2867-.2807-1.215-.3063-.1816-.005-.3456-.0003-.4971,.0138-.0437,.4541-.3657,.9654-.4966,1.1563-.5016,.7316-1.2898,1.1823-2.1131,1.4294-.0112,.0394-.0223,.0789-.033,.1187-.2184,.74-.1775,2.0545-.0819,2.9987,.0956,.9571,.5461,1.6973,.9147,2.1566,.3686,.4467,1.1467,1.0464,1.7474,1.2251,.6143,.1914,1.6245,.1532,1.8839,.1275,.2593-.0128,.4778-.1149,.5733-.2042,.0956-.0893,.041-.153-.1091-.1658-.1639-.0256-.9556,.0128-1.7338-.3574-.7644-.3446-1.0511-.8678-1.4061-1.4292-.3413-.5488-.4505-1.2634-.5188-1.7355-.0682-.4467-.0273-1.3016,0-1.8503,.0136-.5616,.2457-1.2506,.6552-1.6973,.3959-.4595,.8328-.536,1.3788-.5742,.5733-.0383,.8737,.0639,1.1876,.1404,.3413,.0639,.6826,.2553,.8192,.3318,.1365,.0765,.1228-.0254,.0955-.1021Z"/>
  </a>
</svg>