<?xml version="1.0" encoding="UTF-8"?>
<svg style="" id="Layer_1" data-name="Layer 1" xmlns="http://www.w3.org/2000/svg" xmlns:xlink="http://www.w3.org/1999/xlink" viewBox="0 0 331.5224 378.3569">
  <a xlink:href="87.2558823529412">
    <path id="fullLogo" d="M327.6012,153.3093c-10.3794-15.5435-39.507-12.8325-43.3108-12.3629-1.0516,.1297-4.0834,.6057-5.5049,.8229-.2806,.0429-.5589,.0937-.8364,.1536-19.3246,4.172-32.3555,12.1774-38.0995,17.0366,.5331-.9635,1.0954-1.9779,1.7162-3.0949l.163-.2733c3.5373-5.5382,6.1267-9.958,6.8376-11.3474,.4777-1.4009,.4777-1.9603-.9558-2.2403-1.1923,0-14.3231-.5612-24.3506-.841-10.0253,0-24.5893-.28-25.065-.28-.7168,.28-1.4334,.28-.7168,1.4009,.7089,.8305,4.9215,8.2401,8.0164,12.7385l.192,.3065c2.8337,4.9752,5.6448,9.375,6.3539,10.7608,1.1943,1.4006,.4777,2.2401,.2387,2.8013-.2387,.8394-2.1481,4.4805-5.7293,10.6413-3.82,6.7222-8.9295,16.685-11.3165,21.7266-2.15,4.7618-3.7234,7.6821-4.2011,8.5216-.4777,1.1209-.4777,.841-.9555,0-.2387-.5597-8.594-15.9645-12.8919-24.6452-4.0572-7.8431-9.3106-16.5256-9.5476-17.0855-.2387-.5595-.4779-.5595,.237-1.6806,.7062-1.1044,4.8906-8.1924,7.0677-12.4181l.209-.3593c2.4142-3.6934,6.8134-10.7573,7.0484-11.3079,.2392-.5612,.2392-1.1209-.2387-1.1209-.7166-.28-16.951-.28-26.7373-.28-10.5051,0-21.725,.28-23.6359,.5597-.9536,0-1.1925,.5612-.4777,1.6806,.4777,1.1209,3.5813,6.1625,6.4459,10.6427,3.1034,5.3218,6.207,10.0834,7.1625,11.764,.9553,1.6804,.7166,2.2401,.7166,4.4804,0,2.5216-.9555,10.6428-4.2979,32.2084-3.1036,21.5656-5.9683,39.2104-9.7885,64.9766-4.057,26.3275-6.207,40.6112-6.207,41.7322-.237,1.1192-.4759,1.399-.9538,2.5199-.4777,.8411-1.6719,3.0813-5.2532,8.9623-3.3406,5.8811-6.6829,11.7638-8.1163,14.2838-1.1925,2.2402,.2389,2.2402,1.9111,2.2402,1.6702,.2797,18.8582,.2797,24.8265,.2797h23.8744c.9538,0,.7149-.8393,.237-1.9603-.4757-1.1192-3.8183-6.7204-6.6829-11.7621-3.3421-5.3214-6.2068-8.9624-7.1625-10.9227-.9553-1.6805-.9553-3.0813-.7166-4.7618,.4761-1.6742,.4779-4.4592,3.3101-17.4959l.0562-.3007c2.1296-13.6166,2.8487-19.7861,4.9908-34.0172,1.6702-14.5637,6.4442-40.8911,6.6829-42.0103l.439-2.1505c.4777,.8412,4.0978,8.0316,10.0661,19.7953,3.5813,7.5616,6.4459,13.1629,10.2659,19.3238,1.4315,2.2417,3.8465,3.146,5.4537,3.0604,1.5955-.0647,4.4715-1.0529,5.83-3.0809,1.1927-1.9605,6.86-12.303,10.6783-19.0235,2.2453-4.2148,5.5568-10.5449,7.7947-15.2519,.6717-1.4126,.6474-1.2926,1.4273-2.6775,.9913-1.7593,1.494-2.401,1.502-2.4027,.8368,4.8727,3.1231,18.4057,4.7933,31.2547,2.387,17.3635,2.8647,18.4844,4.7758,33.048,1.9093,15.1249,5.0127,28.2877,5.4906,30.8078q.4777,2.8014,0,3.9223c-.2389,1.1193-2.8647,4.7601-6.9238,11.4823-4.0591,6.1608-7.1608,10.9226-8.1161,12.6032-.7166,1.6806-.2389,1.9603,1.1923,2.2402h14.0126c2.7462,0,4.9477,2.2443,4.9068,4.9902-.0043,.2917-.0109,.5923-.0195,.9024-.3945,14.44-24.2698,22.6148-25.889,23.1495-29.7377,9.8185-75.0856-2.3704-99.4687-19.4291-22.1482-15.4951-35.8173-41.1777-21.12-58.7005,9.1522-10.9118,27.0542-15.9767,23.8451-24.3897-1.9421-5.0916-10.9465-9.6521-18.3949-9.0945-9.0864,.6804-13.8544,8.8276-17.0324,14.4685-12.3324,21.89-3.1503,42.9688,.6814,50.4328,3.4432,6.7072,10.8953,20.6891,31.3395,34.3109,10.9712,7.3102,31.8968,21.2527,66.7668,24.3897,0,0,34.7762,3.1286,66.7665-8.2677,5.9153-2.1073,8.9478-3.7549,10.9007-4.9607,14.6241-9.0287,15.0673-21.8804,14.4653-27.9832-.0067-.0525-.0139-.1054-.0213-.1585-.1843-1.3386-.599-2.63-1.2101-3.835-1.0999-2.168-2.9157-5.8132-5.1681-9.2679-3.1036-5.0416-5.2536-9.5237-6.2072-10.6429-.7166-1.1209-.9553-1.9603-1.1943-3.9207-.4777-1.9603-1.4334-11.2042-5.0127-35.0101-3.5813-22.9662-6.6849-48.7324-9.5495-67.778-.2182-1.6069-.4329-3.1719-.6437-4.6985-.1769-1.2812-.1913-3.385-.0359-4.6689,1.2074-9.9771,3.0596-17.3308,14.5613-32.6425,8.2134-10.9339,13.2966-12.5994,18.2469-14.9624,1.507-.7194,3.4037-1.4615,5.6035-2.172,.8228-.2658,1.6688-.4581,2.5219-.5992,1.2195-.2017,2.6069-.4349,3.6684-.5481,12.0967-1.2894,26.9177,1.5708,28.6458,7.9186,.9067,3.3308-2.4109,5.3478-1.313,9.1814,1.8646,6.5116,14.3648,10.9141,18.4281,7.0857,3.2655-3.0773,1.1621-11.5495-2.2933-16.7241Z"/>
  </a>
  <a xlink:href="87.2558823529412">
    <path id="fullLogo-2" data-name="fullLogo" d="M1.3231,177.859c-.6513,2.9961-6.3838,31.5759,12.4513,53.1518,3.0453,3.4885,10.8079,11.6201,23.6072,15.8363,16.5495,5.4516,44.0378-4.2587,54.003-16.028,9.0357-10.6714,14.1189-18.0167,16.9742-30.9399,.373-1.6882,.6386-3.3935,.7842-5.1164h0c.1843-2.18,.277-4.3667,.2781-6.5545l.0545-111.8641c-.1461-6.0852-.5612-20.3529-.5612-20.3529,1.3029-.3192,3.4283,4.5313,5.095,7.8918,12.6196,23.4347,33.5595,43.9916,63.3011,45.2193,16.4777,.8212,38.4942-4.392,49.2425-20.0512,.6998-1.0192,8.929-13.232,4.789-18.1615-2.883-3.4324-11.3661-2.8604-13.8625,.9493-2.4083,3.6759,2.432,7.8084,1.4271,13.8624-.8932,5.3816-5.9669,9.617-11.3205,12.3486,3.8048-3.0001,7.2096-7.0334,7.7611-12.0827,.3501-3.2029-.2598-8.5368-3.5734-9.9639-3.1188-1.3432-7.8024,1.1315-7.9302,3.2201-.1273,2.0845,4.3482,2.7146,5.1569,6.1847,.5369,2.3039-.8703,4.4546-1.8321,5.8815-.4546,.6744-.9631,1.3235-1.5145,1.9472-6.5063,7.3601-17.1483,9.2481-26.2285,5.4995-10.8792-4.4914-19.7907-12.8319-23.612-16.4116-17.4392-16.3364-30.5012-41.7365-38.1277-56.5663-2.3262-5.3685-12.1755-19.1123-21.7178-23.6719-10.1944-4.9726-23.7466-.4184-34.9327,6.9325-6.6902,4.3964-12.1562,10.4972-15.4075,17.8127-2.3939,5.3864-4.0342,11.9211-1.9173,17.79,3.2245,8.9392,18.1062,12.722,22.999,9.5117,6.3393-4.1594,1.7408-7.7607-8.8906-13.8417-16.6175-7.4633-6.2075-25.4925,10.5674-23.6135,2.9369,.329,5.8414,1.4618,8.1948,3.6454,.7536,.6994,2.222,1.6364,3.4213,3.1727,2.9212,3.742,2.9946,8.3029,3.001,10.3479l2.0777,73.0928,.7745,80.8182c.096,8.2566-2.2707,16.4379-7.1785,23.0784-.6516,.8991-1.3236,1.7665-2.015,2.6034-16.3809,19.827-50.8079,16.7817-62.597-6.0757-.3293-.6383-.6524-1.2951-.9691-1.9706-7.9131-21.8161-3.5567-38.4236,3.4272-48.169,1.9533-2.0588,4.1801-3.4934,6.7208-3.8032,6.259-.7626,10.3526,6.9778,13.8703,5.2452,4.1387-2.0384,4.4735-15.7097-1.569-19.3293-6.0138-3.6024-15.2435,4.9287-19.3458,9.0472-5.2545,5.2753-8.3129,10.1927-9.406,12.455-1.643,3.4002-2.6735,5.8402-3.3891,8.162-.6224,2.0195-1.3303,5.4076-2.0808,8.8602Z"/>
  </a>
</svg>